<mxfile host="app.diagrams.net" agent="Mozilla/5.0 (Windows NT 10.0; Win64; x64) AppleWebKit/537.36 (KHTML, like Gecko) Chrome/135.0.0.0 Safari/537.36" version="26.2.13">
  <diagram name="Página-1" id="jImxCCG5NeH7f05Fq8gX">
    <mxGraphModel dx="1428" dy="785" grid="1" gridSize="10" guides="1" tooltips="1" connect="1" arrows="1" fold="1" page="1" pageScale="1" pageWidth="827" pageHeight="1169" math="0" shadow="0">
      <root>
        <mxCell id="0" />
        <mxCell id="1" parent="0" />
        <mxCell id="b0XYPgvStII4nHX-v08S-11" value="" style="rounded=0;whiteSpace=wrap;html=1;fillColor=#f5f5f5;fontColor=#333333;strokeColor=#666666;" vertex="1" parent="1">
          <mxGeometry x="115" y="80" width="610" height="1280" as="geometry" />
        </mxCell>
        <mxCell id="b0XYPgvStII4nHX-v08S-1" value="Administrador" style="shape=umlActor;verticalLabelPosition=bottom;verticalAlign=top;html=1;outlineConnect=0;" vertex="1" parent="1">
          <mxGeometry x="40" y="985" width="30" height="60" as="geometry" />
        </mxCell>
        <mxCell id="b0XYPgvStII4nHX-v08S-2" value="&lt;font style=&quot;font-size: 14px;&quot;&gt;Registrarse&lt;/font&gt;" style="ellipse;whiteSpace=wrap;html=1;" vertex="1" parent="1">
          <mxGeometry x="155" y="165" width="100" height="60" as="geometry" />
        </mxCell>
        <mxCell id="b0XYPgvStII4nHX-v08S-4" value="&lt;font style=&quot;font-size: 14px;&quot;&gt;Iniciar sesión&lt;/font&gt;" style="ellipse;whiteSpace=wrap;html=1;" vertex="1" parent="1">
          <mxGeometry x="160" y="365" width="90" height="60" as="geometry" />
        </mxCell>
        <mxCell id="b0XYPgvStII4nHX-v08S-5" value="" style="endArrow=none;html=1;rounded=0;entryX=0;entryY=0.5;entryDx=0;entryDy=0;" edge="1" parent="1" target="b0XYPgvStII4nHX-v08S-2">
          <mxGeometry width="50" height="50" relative="1" as="geometry">
            <mxPoint x="90" y="375" as="sourcePoint" />
            <mxPoint x="410" y="425" as="targetPoint" />
          </mxGeometry>
        </mxCell>
        <mxCell id="b0XYPgvStII4nHX-v08S-12" value="&lt;font style=&quot;font-size: 14px;&quot;&gt;Publicar receta&lt;/font&gt;" style="ellipse;whiteSpace=wrap;html=1;" vertex="1" parent="1">
          <mxGeometry x="370" y="155" width="100" height="60" as="geometry" />
        </mxCell>
        <mxCell id="b0XYPgvStII4nHX-v08S-13" value="&lt;span style=&quot;font-size: 14px;&quot;&gt;Ver recetas&lt;/span&gt;" style="ellipse;whiteSpace=wrap;html=1;" vertex="1" parent="1">
          <mxGeometry x="155" y="570" width="100" height="60" as="geometry" />
        </mxCell>
        <mxCell id="b0XYPgvStII4nHX-v08S-14" value="&lt;font style=&quot;font-size: 14px;&quot;&gt;Comentar receta&lt;/font&gt;" style="ellipse;whiteSpace=wrap;html=1;" vertex="1" parent="1">
          <mxGeometry x="370" y="385" width="100" height="60" as="geometry" />
        </mxCell>
        <mxCell id="b0XYPgvStII4nHX-v08S-15" value="&lt;font style=&quot;font-size: 14px;&quot;&gt;Editar perfil&lt;/font&gt;" style="ellipse;whiteSpace=wrap;html=1;" vertex="1" parent="1">
          <mxGeometry x="370" y="485" width="100" height="60" as="geometry" />
        </mxCell>
        <mxCell id="b0XYPgvStII4nHX-v08S-16" value="&lt;font style=&quot;font-size: 14px;&quot;&gt;Seguir usuario&lt;/font&gt;" style="ellipse;whiteSpace=wrap;html=1;" vertex="1" parent="1">
          <mxGeometry x="580" y="585" width="100" height="60" as="geometry" />
        </mxCell>
        <mxCell id="b0XYPgvStII4nHX-v08S-17" value="&lt;font style=&quot;font-size: 14px;&quot;&gt;Responder comentario&lt;/font&gt;" style="ellipse;whiteSpace=wrap;html=1;" vertex="1" parent="1">
          <mxGeometry x="580" y="385" width="100" height="60" as="geometry" />
        </mxCell>
        <mxCell id="b0XYPgvStII4nHX-v08S-18" value="&lt;font style=&quot;font-size: 14px;&quot;&gt;Editar receta&lt;/font&gt;" style="ellipse;whiteSpace=wrap;html=1;" vertex="1" parent="1">
          <mxGeometry x="580" y="155" width="100" height="60" as="geometry" />
        </mxCell>
        <mxCell id="b0XYPgvStII4nHX-v08S-19" value="&lt;font style=&quot;font-size: 14px;&quot;&gt;Ver perfiles de usuarios&lt;/font&gt;" style="ellipse;whiteSpace=wrap;html=1;" vertex="1" parent="1">
          <mxGeometry x="370" y="585" width="100" height="60" as="geometry" />
        </mxCell>
        <mxCell id="b0XYPgvStII4nHX-v08S-21" value="&lt;font style=&quot;font-size: 14px;&quot;&gt;Guardar recetas&lt;/font&gt;" style="ellipse;whiteSpace=wrap;html=1;" vertex="1" parent="1">
          <mxGeometry x="370" y="275" width="100" height="60" as="geometry" />
        </mxCell>
        <mxCell id="b0XYPgvStII4nHX-v08S-23" value="" style="endArrow=none;html=1;rounded=0;entryX=0;entryY=0.5;entryDx=0;entryDy=0;" edge="1" parent="1" target="b0XYPgvStII4nHX-v08S-13">
          <mxGeometry width="50" height="50" relative="1" as="geometry">
            <mxPoint x="90" y="415" as="sourcePoint" />
            <mxPoint x="420" y="325" as="targetPoint" />
          </mxGeometry>
        </mxCell>
        <mxCell id="b0XYPgvStII4nHX-v08S-33" value="&lt;font style=&quot;font-size: 12px;&quot;&gt;includes&lt;/font&gt;" style="html=1;verticalAlign=bottom;endArrow=open;dashed=1;endSize=8;curved=0;rounded=0;exitX=0;exitY=0.5;exitDx=0;exitDy=0;entryX=1;entryY=1;entryDx=0;entryDy=0;" edge="1" parent="1" source="b0XYPgvStII4nHX-v08S-14" target="b0XYPgvStII4nHX-v08S-4">
          <mxGeometry relative="1" as="geometry">
            <mxPoint x="474" y="395" as="sourcePoint" />
            <mxPoint x="530" y="495" as="targetPoint" />
          </mxGeometry>
        </mxCell>
        <mxCell id="b0XYPgvStII4nHX-v08S-35" value="&lt;font style=&quot;font-size: 12px;&quot;&gt;includes&lt;/font&gt;" style="html=1;verticalAlign=bottom;endArrow=open;dashed=1;endSize=8;curved=0;rounded=0;exitX=0;exitY=0.5;exitDx=0;exitDy=0;entryX=1;entryY=0.5;entryDx=0;entryDy=0;" edge="1" parent="1" source="b0XYPgvStII4nHX-v08S-21" target="b0XYPgvStII4nHX-v08S-4">
          <mxGeometry relative="1" as="geometry">
            <mxPoint x="474" y="395" as="sourcePoint" />
            <mxPoint x="530" y="355" as="targetPoint" />
          </mxGeometry>
        </mxCell>
        <mxCell id="b0XYPgvStII4nHX-v08S-39" value="&lt;font style=&quot;font-size: 12px;&quot;&gt;extends&lt;/font&gt;" style="html=1;verticalAlign=bottom;endArrow=open;dashed=1;endSize=8;curved=0;rounded=0;exitX=0;exitY=0.5;exitDx=0;exitDy=0;entryX=1;entryY=0.5;entryDx=0;entryDy=0;" edge="1" parent="1" source="b0XYPgvStII4nHX-v08S-18" target="b0XYPgvStII4nHX-v08S-12">
          <mxGeometry relative="1" as="geometry">
            <mxPoint x="663" y="214" as="sourcePoint" />
            <mxPoint x="530" y="215" as="targetPoint" />
          </mxGeometry>
        </mxCell>
        <mxCell id="b0XYPgvStII4nHX-v08S-40" value="&lt;font style=&quot;font-size: 12px;&quot;&gt;extends&lt;/font&gt;" style="html=1;verticalAlign=bottom;endArrow=open;dashed=1;endSize=8;curved=0;rounded=0;exitX=0;exitY=0.5;exitDx=0;exitDy=0;entryX=1;entryY=0.5;entryDx=0;entryDy=0;" edge="1" parent="1" source="b0XYPgvStII4nHX-v08S-17" target="b0XYPgvStII4nHX-v08S-14">
          <mxGeometry relative="1" as="geometry">
            <mxPoint x="560" y="195" as="sourcePoint" />
            <mxPoint x="480" y="195" as="targetPoint" />
          </mxGeometry>
        </mxCell>
        <mxCell id="b0XYPgvStII4nHX-v08S-41" value="" style="endArrow=none;html=1;rounded=0;entryX=0;entryY=0.5;entryDx=0;entryDy=0;strokeWidth=2;" edge="1" parent="1" target="b0XYPgvStII4nHX-v08S-4">
          <mxGeometry width="50" height="50" relative="1" as="geometry">
            <mxPoint x="90" y="395" as="sourcePoint" />
            <mxPoint x="165" y="565" as="targetPoint" />
          </mxGeometry>
        </mxCell>
        <mxCell id="b0XYPgvStII4nHX-v08S-45" value="" style="endArrow=classic;html=1;rounded=0;" edge="1" parent="1">
          <mxGeometry width="50" height="50" relative="1" as="geometry">
            <mxPoint x="60" y="455" as="sourcePoint" />
            <mxPoint x="60" y="965" as="targetPoint" />
          </mxGeometry>
        </mxCell>
        <mxCell id="b0XYPgvStII4nHX-v08S-46" value="&lt;font style=&quot;font-size: 12px;&quot;&gt;extends&lt;/font&gt;" style="html=1;verticalAlign=bottom;endArrow=open;dashed=1;endSize=8;curved=0;rounded=0;exitX=0;exitY=0.5;exitDx=0;exitDy=0;entryX=1;entryY=0.5;entryDx=0;entryDy=0;" edge="1" parent="1" source="b0XYPgvStII4nHX-v08S-16" target="b0XYPgvStII4nHX-v08S-19">
          <mxGeometry relative="1" as="geometry">
            <mxPoint x="580" y="554.5" as="sourcePoint" />
            <mxPoint x="470" y="554.5" as="targetPoint" />
          </mxGeometry>
        </mxCell>
        <mxCell id="b0XYPgvStII4nHX-v08S-47" value="Usuario" style="shape=umlActor;verticalLabelPosition=bottom;verticalAlign=top;html=1;outlineConnect=0;" vertex="1" parent="1">
          <mxGeometry x="40" y="355" width="30" height="60" as="geometry" />
        </mxCell>
        <mxCell id="b0XYPgvStII4nHX-v08S-49" value="" style="endArrow=none;html=1;rounded=0;entryX=1;entryY=0;entryDx=0;entryDy=0;exitX=0;exitY=0.5;exitDx=0;exitDy=0;" edge="1" parent="1" source="b0XYPgvStII4nHX-v08S-12" target="b0XYPgvStII4nHX-v08S-4">
          <mxGeometry width="50" height="50" relative="1" as="geometry">
            <mxPoint x="100" y="385" as="sourcePoint" />
            <mxPoint x="165" y="205" as="targetPoint" />
          </mxGeometry>
        </mxCell>
        <mxCell id="b0XYPgvStII4nHX-v08S-50" value="" style="endArrow=none;html=1;rounded=0;entryX=0.5;entryY=1;entryDx=0;entryDy=0;exitX=0;exitY=0.5;exitDx=0;exitDy=0;" edge="1" parent="1" source="b0XYPgvStII4nHX-v08S-15" target="b0XYPgvStII4nHX-v08S-4">
          <mxGeometry width="50" height="50" relative="1" as="geometry">
            <mxPoint x="380" y="195" as="sourcePoint" />
            <mxPoint x="265" y="205" as="targetPoint" />
          </mxGeometry>
        </mxCell>
        <mxCell id="b0XYPgvStII4nHX-v08S-51" value="" style="endArrow=none;html=1;rounded=0;exitX=0;exitY=0.5;exitDx=0;exitDy=0;entryX=0.211;entryY=0.967;entryDx=0;entryDy=0;entryPerimeter=0;" edge="1" parent="1" source="b0XYPgvStII4nHX-v08S-19" target="b0XYPgvStII4nHX-v08S-4">
          <mxGeometry width="50" height="50" relative="1" as="geometry">
            <mxPoint x="380" y="525" as="sourcePoint" />
            <mxPoint x="265" y="610" as="targetPoint" />
          </mxGeometry>
        </mxCell>
        <mxCell id="b0XYPgvStII4nHX-v08S-53" value="" style="endArrow=none;html=1;rounded=0;entryX=0;entryY=0.5;entryDx=0;entryDy=0;strokeWidth=2;" edge="1" parent="1" target="b0XYPgvStII4nHX-v08S-54">
          <mxGeometry width="50" height="50" relative="1" as="geometry">
            <mxPoint x="90" y="1015" as="sourcePoint" />
            <mxPoint x="155" y="1025" as="targetPoint" />
          </mxGeometry>
        </mxCell>
        <mxCell id="b0XYPgvStII4nHX-v08S-54" value="&lt;font style=&quot;font-size: 14px;&quot;&gt;Gestionar usuarios&lt;/font&gt;" style="ellipse;whiteSpace=wrap;html=1;" vertex="1" parent="1">
          <mxGeometry x="160" y="835" width="90" height="60" as="geometry" />
        </mxCell>
        <mxCell id="b0XYPgvStII4nHX-v08S-56" value="&lt;font style=&quot;font-size: 14px;&quot;&gt;Ver listado&amp;nbsp; de usuarios&lt;/font&gt;" style="ellipse;whiteSpace=wrap;html=1;" vertex="1" parent="1">
          <mxGeometry x="375" y="745" width="90" height="60" as="geometry" />
        </mxCell>
        <mxCell id="b0XYPgvStII4nHX-v08S-57" value="&lt;font style=&quot;font-size: 14px;&quot;&gt;Bloquear usuarios&lt;/font&gt;" style="ellipse;whiteSpace=wrap;html=1;" vertex="1" parent="1">
          <mxGeometry x="374" y="925" width="90" height="60" as="geometry" />
        </mxCell>
        <mxCell id="b0XYPgvStII4nHX-v08S-58" value="&lt;font style=&quot;font-size: 14px;&quot;&gt;Editar usuarios&lt;/font&gt;" style="ellipse;whiteSpace=wrap;html=1;" vertex="1" parent="1">
          <mxGeometry x="374" y="835" width="90" height="60" as="geometry" />
        </mxCell>
        <mxCell id="b0XYPgvStII4nHX-v08S-59" value="" style="html=1;verticalAlign=bottom;endArrow=none;endSize=8;curved=0;rounded=0;exitX=0;exitY=0.5;exitDx=0;exitDy=0;entryX=1;entryY=0;entryDx=0;entryDy=0;startFill=0;" edge="1" parent="1" source="b0XYPgvStII4nHX-v08S-56" target="b0XYPgvStII4nHX-v08S-54">
          <mxGeometry relative="1" as="geometry">
            <mxPoint x="590" y="645" as="sourcePoint" />
            <mxPoint x="480" y="645" as="targetPoint" />
          </mxGeometry>
        </mxCell>
        <mxCell id="b0XYPgvStII4nHX-v08S-60" value="" style="html=1;verticalAlign=bottom;endArrow=none;endSize=8;curved=0;rounded=0;exitX=0;exitY=0.5;exitDx=0;exitDy=0;entryX=1;entryY=0.5;entryDx=0;entryDy=0;startFill=0;" edge="1" parent="1" source="b0XYPgvStII4nHX-v08S-58" target="b0XYPgvStII4nHX-v08S-54">
          <mxGeometry relative="1" as="geometry">
            <mxPoint x="385" y="785" as="sourcePoint" />
            <mxPoint x="215" y="845" as="targetPoint" />
            <mxPoint as="offset" />
          </mxGeometry>
        </mxCell>
        <mxCell id="b0XYPgvStII4nHX-v08S-61" value="" style="html=1;verticalAlign=bottom;endArrow=none;endSize=8;curved=0;rounded=0;exitX=0;exitY=0.5;exitDx=0;exitDy=0;entryX=1;entryY=1;entryDx=0;entryDy=0;startFill=0;" edge="1" parent="1" source="b0XYPgvStII4nHX-v08S-57" target="b0XYPgvStII4nHX-v08S-54">
          <mxGeometry relative="1" as="geometry">
            <mxPoint x="375" y="955" as="sourcePoint" />
            <mxPoint x="260" y="875" as="targetPoint" />
          </mxGeometry>
        </mxCell>
        <mxCell id="b0XYPgvStII4nHX-v08S-62" value="&lt;font style=&quot;font-size: 14px;&quot;&gt;Gestionar contenido&lt;/font&gt;" style="ellipse;whiteSpace=wrap;html=1;" vertex="1" parent="1">
          <mxGeometry x="160" y="1154" width="90" height="60" as="geometry" />
        </mxCell>
        <mxCell id="b0XYPgvStII4nHX-v08S-63" value="" style="endArrow=none;html=1;rounded=0;entryX=0;entryY=0.5;entryDx=0;entryDy=0;strokeWidth=2;" edge="1" parent="1" target="b0XYPgvStII4nHX-v08S-62">
          <mxGeometry width="50" height="50" relative="1" as="geometry">
            <mxPoint x="90" y="1035" as="sourcePoint" />
            <mxPoint x="170" y="935" as="targetPoint" />
          </mxGeometry>
        </mxCell>
        <mxCell id="b0XYPgvStII4nHX-v08S-64" value="&lt;font style=&quot;font-size: 14px;&quot;&gt;Editar publicaciones&lt;/font&gt;" style="ellipse;whiteSpace=wrap;html=1;" vertex="1" parent="1">
          <mxGeometry x="375" y="1065" width="105" height="60" as="geometry" />
        </mxCell>
        <mxCell id="b0XYPgvStII4nHX-v08S-65" value="" style="html=1;verticalAlign=bottom;endArrow=none;endSize=8;curved=0;rounded=0;exitX=0;exitY=0.5;exitDx=0;exitDy=0;entryX=1;entryY=0;entryDx=0;entryDy=0;startFill=0;" edge="1" parent="1" source="b0XYPgvStII4nHX-v08S-64" target="b0XYPgvStII4nHX-v08S-62">
          <mxGeometry relative="1" as="geometry">
            <mxPoint x="589" y="955" as="sourcePoint" />
            <mxPoint x="236" y="1154" as="targetPoint" />
          </mxGeometry>
        </mxCell>
        <mxCell id="b0XYPgvStII4nHX-v08S-66" value="&lt;font style=&quot;font-size: 14px;&quot;&gt;Eliminar publicaciones&lt;/font&gt;" style="ellipse;whiteSpace=wrap;html=1;" vertex="1" parent="1">
          <mxGeometry x="375" y="1154" width="105" height="60" as="geometry" />
        </mxCell>
        <mxCell id="b0XYPgvStII4nHX-v08S-67" value="" style="html=1;verticalAlign=bottom;endArrow=none;endSize=8;curved=0;rounded=0;exitX=0;exitY=0.5;exitDx=0;exitDy=0;entryX=1;entryY=0.5;entryDx=0;entryDy=0;startFill=0;" edge="1" parent="1" source="b0XYPgvStII4nHX-v08S-66" target="b0XYPgvStII4nHX-v08S-62">
          <mxGeometry relative="1" as="geometry">
            <mxPoint x="623" y="1075" as="sourcePoint" />
            <mxPoint x="270" y="1274" as="targetPoint" />
          </mxGeometry>
        </mxCell>
        <mxCell id="b0XYPgvStII4nHX-v08S-70" value="&lt;font style=&quot;font-size: 14px;&quot;&gt;Gestionar comentarios&lt;/font&gt;" style="ellipse;whiteSpace=wrap;html=1;" vertex="1" parent="1">
          <mxGeometry x="375" y="1235" width="105" height="60" as="geometry" />
        </mxCell>
        <mxCell id="b0XYPgvStII4nHX-v08S-71" value="" style="html=1;verticalAlign=bottom;endArrow=none;endSize=8;curved=0;rounded=0;exitX=0;exitY=0.5;exitDx=0;exitDy=0;entryX=1;entryY=1;entryDx=0;entryDy=0;startFill=0;" edge="1" parent="1" source="b0XYPgvStII4nHX-v08S-70" target="b0XYPgvStII4nHX-v08S-62">
          <mxGeometry relative="1" as="geometry">
            <mxPoint x="620.5" y="1166" as="sourcePoint" />
            <mxPoint x="247.5" y="1275" as="targetPoint" />
          </mxGeometry>
        </mxCell>
      </root>
    </mxGraphModel>
  </diagram>
</mxfile>
